<svg width="50" height="50" viewBox="0 0 50 50" fill="none" xmlns="http://www.w3.org/2000/svg">
<rect width="50" height="50" rx="25" fill="#FFE68F"/>
<path fill-rule="evenodd" clip-rule="evenodd" d="M31.2627 20.5246C31.0342 20.3322 30.7946 20.1519 30.5448 19.9849C31.2177 18.9782 32.1934 17.7771 33.3181 17.1775C32.179 16.8201 30.2704 16.7357 28.3287 18.9485C28.0101 18.855 27.6826 18.7802 27.3474 18.7255C27.2109 18.7032 27.0732 18.6843 26.9342 18.6688L25.0687 18.4604C24.7535 18.4228 24.4346 18.4066 24.1196 18.4077C24.0845 18.4079 24.0495 18.4082 24.0145 18.4088C22.5594 15.1262 20.4334 14.7283 19.1343 14.8485C20.3121 15.8471 21.0851 17.6639 21.4933 18.855C21.2111 18.9532 20.9341 19.0672 20.6634 19.1968C20.2958 18.1152 19.5289 16.2463 18.4053 15.412C18.1479 15.2209 18.0319 14.8954 18.1105 14.5846C18.189 14.2719 18.4468 14.0401 18.7655 13.9923C18.9457 13.9657 19.1487 13.9454 19.3696 13.9385C19.0089 13.4506 18.581 12.9605 18.0737 12.4897C17.7459 12.1844 17.6411 11.721 17.8067 11.3091C17.9743 10.8932 18.372 10.6318 18.827 10.6339C20.194 10.6521 22.5755 11.035 24.1996 13.2136C25.1054 10.038 25.9942 8.54257 26.6021 7.8418C26.8132 7.59848 27.1355 7.47309 27.4584 7.50486C27.7813 7.53857 28.0678 7.72569 28.2245 8.00644C29.033 9.45469 29.4092 11.2558 29.3492 13.3728C31.2013 12.0756 33.2276 12.1281 34.6852 12.4447C35.127 12.54 35.4569 12.8881 35.5267 13.3321C35.5944 13.7723 35.388 14.1999 34.9999 14.4226C34.0992 14.9388 33.3627 15.5374 32.7667 16.1386C33.1922 16.1996 33.563 16.3081 33.8616 16.4207C34.1635 16.5341 34.3648 16.8166 34.3757 17.1386C34.3867 17.4587 34.2031 17.7524 33.9099 17.8835C32.8621 18.3572 31.8996 19.566 31.2627 20.5246ZM30.781 16.2596C31.0505 16.1864 31.3125 16.1395 31.5646 16.1135C32.2911 15.2694 33.267 14.3852 34.5556 13.6462C34.6487 13.5935 34.6504 13.512 34.6444 13.4674C34.6364 13.4208 34.6089 13.3414 34.4979 13.3166C33.4066 13.0805 31.9525 13.0098 30.5517 13.7C30.5202 13.7295 30.4839 13.7549 30.4433 13.775C30.3424 13.8259 28.0368 15.0083 27.5429 18.1088C27.5088 18.3262 27.3188 18.4841 27.1029 18.4849C27.0796 18.485 27.0543 18.4831 27.031 18.4794C26.7858 18.4415 26.6197 18.2112 26.6596 17.9685C26.6713 17.895 26.6838 17.8224 26.6973 17.7508C26.6895 17.7788 26.6811 17.8068 26.6719 17.8348C26.5931 18.0737 26.333 18.2047 26.0936 18.1261C25.9145 18.0666 25.7972 17.9098 25.781 17.7334C25.7607 17.5064 25.7832 17.2832 25.8193 17.0639C25.8554 16.8425 25.9149 16.625 25.9763 16.4075C26.0377 16.1899 26.1107 15.9723 26.1896 15.7567C26.2705 15.541 26.3572 15.3253 26.4672 15.1134C26.4846 15.0803 26.5254 15.0666 26.5605 15.0839C26.5799 15.0955 26.5917 15.111 26.5956 15.1284C26.6548 15.3611 26.6907 15.5899 26.7207 15.8167C26.7488 16.0456 26.7691 16.2725 26.7816 16.4976L26.7817 16.4999C26.7923 16.726 26.8027 16.9503 26.7861 17.1727C26.7797 17.2706 26.7706 17.368 26.7565 17.465C27.0809 16.0357 27.7499 14.9977 28.4008 14.2818C28.5444 12.6405 28.4903 10.3134 27.4444 8.44205C27.4248 8.4072 27.3917 8.39762 27.3684 8.39577C27.347 8.3939 27.3101 8.39599 27.281 8.42908C26.7862 9.00045 25.8066 10.5348 24.806 14.4071C25.2012 15.3119 25.4903 16.4956 25.2862 17.8619C25.2573 18.057 25.1011 18.2032 24.9129 18.2323C24.9246 18.26 24.9362 18.2879 24.9478 18.3158L27.4482 18.6009C28.4562 17.374 29.5747 16.5874 30.781 16.2596ZM18.8168 11.5323C20.0668 11.5499 21.6608 11.8684 22.9238 13.1079C22.9282 13.1127 22.9327 13.1175 22.9374 13.1223L22.9377 13.1225C22.9667 13.1528 24.5867 14.8428 24.4478 17.2616C23.743 15.9648 22.858 15.0351 21.8085 14.4892C21.3696 14.2603 20.9364 14.1178 20.5273 14.0349C20.0584 13.3066 19.4569 12.5549 18.6857 11.8393C18.6076 11.7659 18.6229 11.6863 18.6402 11.6455C18.6576 11.6027 18.7021 11.5327 18.8129 11.5323L18.8168 11.5323Z" fill="#30E542"/>
<path d="M30.781 16.2596C31.0505 16.1864 31.3125 16.1395 31.5646 16.1135C32.2911 15.2694 33.267 14.3852 34.5556 13.6462C34.6487 13.5935 34.6504 13.512 34.6444 13.4674C34.6364 13.4208 34.6089 13.3414 34.4979 13.3166C33.4066 13.0805 31.9525 13.0098 30.5517 13.7C30.5202 13.7295 30.4839 13.7549 30.4433 13.775C30.3424 13.8259 28.0368 15.0083 27.5429 18.1088C27.5088 18.3262 27.3188 18.4841 27.1029 18.4849C27.0796 18.485 27.0543 18.4831 27.031 18.4794C26.7858 18.4415 26.6197 18.2112 26.6596 17.9685C26.6713 17.895 26.6838 17.8224 26.6973 17.7508C26.6895 17.7788 26.6811 17.8068 26.6719 17.8348C26.5931 18.0737 26.333 18.2047 26.0936 18.1261C25.9145 18.0666 25.7972 17.9098 25.781 17.7334C25.7607 17.5064 25.7832 17.2832 25.8193 17.0639C25.8554 16.8425 25.9149 16.625 25.9763 16.4075C26.0377 16.1899 26.1107 15.9723 26.1896 15.7567C26.2705 15.541 26.3572 15.3253 26.4672 15.1134C26.4846 15.0803 26.5254 15.0666 26.5605 15.0839C26.5799 15.0955 26.5917 15.111 26.5956 15.1284C26.6548 15.3611 26.6907 15.5899 26.7207 15.8167C26.7488 16.0456 26.7691 16.2725 26.7816 16.4976L26.7817 16.4999C26.7923 16.726 26.8027 16.9503 26.7861 17.1727C26.7797 17.2706 26.7706 17.368 26.7565 17.465C27.0809 16.0357 27.7499 14.9977 28.4008 14.2818C28.5444 12.6405 28.4903 10.3134 27.4444 8.44205C27.4248 8.4072 27.3917 8.39762 27.3684 8.39577C27.347 8.3939 27.3101 8.39599 27.281 8.42908C26.7862 9.00045 25.8066 10.5348 24.806 14.4071C25.2012 15.3119 25.4903 16.4956 25.2862 17.8619C25.2573 18.057 25.1011 18.2032 24.9129 18.2323C24.9246 18.26 24.9362 18.2879 24.9478 18.3158L27.4482 18.6009C28.4562 17.374 29.5747 16.5874 30.781 16.2596Z" fill="#30E542"/>
<path d="M22.9238 13.1079C21.6608 11.8684 20.0668 11.5499 18.8168 11.5323L18.8129 11.5323C18.7021 11.5327 18.6576 11.6027 18.6402 11.6455C18.6229 11.6863 18.6076 11.7659 18.6857 11.8393C19.4569 12.5549 20.0584 13.3066 20.5273 14.0349C20.9364 14.1178 21.3696 14.2603 21.8085 14.4892C22.858 15.0351 23.743 15.9648 24.4478 17.2616C24.5867 14.8428 22.9667 13.1528 22.9377 13.1225L22.9374 13.1223C22.9327 13.1175 22.9282 13.1127 22.9238 13.1079Z" fill="#30E542"/>
<path d="M24.0145 18.4088C22.5594 15.1262 20.4334 14.7283 19.1343 14.8485C20.3121 15.8471 21.0851 17.6639 21.4933 18.855C21.5241 18.8443 21.5549 18.8338 21.5859 18.8234C22.365 18.5629 23.1821 18.4226 24.0145 18.4088Z" fill="#30E542"/>
<path d="M28.3287 18.9485C29.0067 19.1474 29.9575 19.63 30.5448 19.9849C31.2177 18.9782 32.1934 17.7771 33.3181 17.1775C32.179 16.8201 30.2704 16.7357 28.3287 18.9485Z" fill="#30E542"/>
<path fill-rule="evenodd" clip-rule="evenodd" d="M31.2627 20.5246C31.0342 20.3322 30.7946 20.1519 30.5448 19.9849C31.2177 18.9782 32.1934 17.7771 33.3181 17.1775C32.179 16.8201 30.2704 16.7357 28.3287 18.9485C27.8803 18.8169 27.4145 18.7224 26.9342 18.6688L25.0687 18.4604C24.7535 18.4228 24.4346 18.4066 24.1196 18.4077C24.0845 18.4079 24.0495 18.4082 24.0145 18.4088C22.5594 15.1262 20.4334 14.7283 19.1343 14.8485C20.3121 15.8471 21.0851 17.6639 21.4933 18.855C21.2111 18.9532 20.9341 19.0672 20.6634 19.1968C20.2958 18.1152 19.5289 16.2463 18.4053 15.412C18.1479 15.2209 18.0319 14.8954 18.1105 14.5846C18.189 14.2719 18.4468 14.0401 18.7655 13.9923C18.9457 13.9657 19.1487 13.9454 19.3696 13.9385C19.0089 13.4506 18.581 12.9605 18.0737 12.4897C17.7459 12.1844 17.6411 11.721 17.8067 11.3091C17.9743 10.8932 18.372 10.6318 18.827 10.6339C20.194 10.6521 22.5755 11.035 24.1996 13.2136C25.1054 10.038 25.9942 8.54257 26.6021 7.8418C26.8132 7.59848 27.1355 7.47309 27.4584 7.50486C27.7813 7.53857 28.0678 7.72569 28.2245 8.00644C29.033 9.45469 29.4092 11.2558 29.3492 13.3728C31.2013 12.0756 33.2276 12.1281 34.6852 12.4447C35.127 12.54 35.4569 12.8881 35.5267 13.3321C35.5944 13.7723 35.388 14.1999 34.9999 14.4226C34.0992 14.9388 33.3627 15.5374 32.7667 16.1386C33.1922 16.1996 33.563 16.3081 33.8616 16.4207C34.1635 16.5341 34.3648 16.8166 34.3757 17.1386C34.3867 17.4587 34.2031 17.7524 33.9099 17.8835C32.8621 18.3572 31.8996 19.566 31.2627 20.5246ZM30.781 16.2596C31.0505 16.1864 31.3125 16.1395 31.5646 16.1135C32.2911 15.2694 33.267 14.3852 34.5556 13.6462C34.6487 13.5935 34.6504 13.512 34.6444 13.4674C34.6364 13.4208 34.6089 13.3414 34.4979 13.3166C33.4066 13.0805 31.9525 13.0098 30.5517 13.7C30.5202 13.7295 30.4839 13.7549 30.4433 13.775C30.3424 13.8259 28.0368 15.0083 27.5429 18.1088C27.5088 18.3262 27.3188 18.4841 27.1029 18.4849C27.0796 18.485 27.0543 18.4831 27.031 18.4794C26.7858 18.4415 26.6197 18.2112 26.6596 17.9685C26.6713 17.895 26.6838 17.8224 26.6973 17.7508C26.6895 17.7788 26.6811 17.8068 26.6719 17.8348C26.5931 18.0737 26.333 18.2047 26.0936 18.1261C25.9145 18.0666 25.7972 17.9098 25.781 17.7334C25.7607 17.5064 25.7832 17.2832 25.8193 17.0639C25.8554 16.8425 25.9149 16.625 25.9763 16.4075C26.0377 16.1899 26.1107 15.9723 26.1896 15.7567C26.2705 15.541 26.3572 15.3253 26.4672 15.1134C26.4846 15.0803 26.5254 15.0666 26.5605 15.0839C26.5799 15.0955 26.5917 15.111 26.5956 15.1284C26.6548 15.3611 26.6907 15.5899 26.7207 15.8167C26.7488 16.0456 26.7691 16.2725 26.7816 16.4976L26.7817 16.4999C26.7923 16.726 26.8027 16.9503 26.7861 17.1727C26.7797 17.2706 26.7706 17.368 26.7565 17.465C27.0809 16.0357 27.7499 14.9977 28.4008 14.2818C28.5444 12.6405 28.4903 10.3134 27.4444 8.44205C27.4248 8.4072 27.3917 8.39762 27.3684 8.39577C27.347 8.3939 27.3101 8.39599 27.281 8.42908C26.7862 9.00045 25.8066 10.5348 24.806 14.4071C25.2012 15.3119 25.4903 16.4956 25.2862 17.8619C25.2573 18.057 25.1011 18.2032 24.9129 18.2323C24.9246 18.26 24.9362 18.2879 24.9478 18.3158L27.4482 18.6009C28.4562 17.374 29.5747 16.5874 30.781 16.2596ZM18.8168 11.5323C20.0668 11.5499 21.6608 11.8684 22.9238 13.1079C22.9282 13.1127 22.9327 13.1175 22.9374 13.1223L22.9377 13.1225C22.9667 13.1528 24.5867 14.8428 24.4478 17.2616C23.743 15.9648 22.858 15.0351 21.8085 14.4892C21.3696 14.2603 20.9364 14.1178 20.5273 14.0349C20.0584 13.3066 19.4569 12.5549 18.6857 11.8393C18.6076 11.7659 18.6229 11.6863 18.6402 11.6455C18.6576 11.6027 18.7021 11.5327 18.8129 11.5323L18.8168 11.5323Z" fill="#000072"/>
<path fill-rule="evenodd" clip-rule="evenodd" d="M24.9686 13.7975C24.9684 13.7991 24.9684 13.7999 24.9684 13.7999C25.667 12.6027 27.2414 8.76847 27.3922 8.40021C27.3838 8.39765 27.3756 8.39634 27.3684 8.39577C27.347 8.3939 27.3101 8.39599 27.281 8.42908C26.813 8.96946 25.9115 10.3712 24.9686 13.7975Z" fill="#7BEE86"/>
<path d="M21.4933 18.855C21.5241 18.8443 21.5549 18.8338 21.5859 18.8234C22.365 18.5629 23.1821 18.4226 24.0145 18.4088C23.8086 17.9441 23.5891 17.5373 23.3605 17.1815C22.5274 17.2372 21.7258 17.3529 20.9675 17.521C21.1836 17.9992 21.3584 18.4613 21.4933 18.855Z" fill="#2CD246"/>
<path fill-rule="evenodd" clip-rule="evenodd" d="M31.6338 18.5685C30.9865 18.2807 30.2931 18.0311 29.5636 17.8236C29.1583 18.1066 28.7443 18.4749 28.3287 18.9485C29.0067 19.1474 29.9575 19.63 30.5448 19.9849C30.8502 19.528 31.218 19.0311 31.6338 18.5685Z" fill="#2CD246"/>
<path d="M19.8447 13.0856C20.0988 13.4032 20.3254 13.7212 20.5273 14.0349C20.9364 14.1178 21.3696 14.2603 21.8085 14.4892C22.858 15.0351 23.743 15.9648 24.4478 17.2616C24.4565 17.1106 24.4583 16.9626 24.4541 16.8176C23.5243 14.4059 21.2899 13.4553 19.8447 13.0856Z" fill="#2CD246"/>
<path d="M24.806 14.4071C25.2012 15.3119 25.4903 16.4956 25.2862 17.8619C25.2573 18.057 25.1011 18.2032 24.9129 18.2323C24.9246 18.26 24.9362 18.2879 24.9478 18.3158L27.4482 18.6009C28.4562 17.374 29.5747 16.5874 30.781 16.2596C31.0505 16.1864 31.3125 16.1395 31.5646 16.1135C31.7782 15.8654 32.0133 15.6138 32.2715 15.3635C29.7775 15.3923 28.6299 16.7274 28.2241 17.3638C28.0625 17.3284 27.8984 17.2956 27.7328 17.2643C27.6551 17.5284 27.5905 17.8097 27.5429 18.1088C27.5088 18.3262 27.3188 18.4841 27.1029 18.4849C27.0796 18.485 27.0543 18.4831 27.031 18.4794C26.7858 18.4415 26.6197 18.2112 26.6596 17.9685C26.6713 17.895 26.6838 17.8224 26.6973 17.7508C26.6895 17.7788 26.6811 17.8068 26.6719 17.8348C26.5931 18.0737 26.333 18.2047 26.0936 18.1261C25.9145 18.0666 25.7972 17.9098 25.781 17.7334C25.7607 17.5064 25.7832 17.2832 25.8193 17.0639C25.8499 16.8762 25.8973 16.6912 25.9485 16.5067C25.7051 15.7887 25.3527 14.906 25.0598 14.1988C25.0232 14.1104 24.9875 14.0247 24.9531 13.9425L24.9385 13.9074C24.8944 14.0695 24.8502 14.236 24.806 14.4071Z" fill="#2CD246"/>
<path d="M26.7665 16.2719C26.7724 16.3473 26.7775 16.4226 26.7816 16.4976L26.7817 16.4999C26.7923 16.726 26.8027 16.9503 26.7861 17.1727C26.7797 17.2706 26.7706 17.368 26.7565 17.465C27.0809 16.0357 27.7499 14.9977 28.4008 14.2818C28.4193 14.071 28.4345 13.8488 28.4447 13.6177C27.7385 14.2669 27.1552 15.3811 26.7665 16.2719Z" fill="#2CD246"/>
<path fill-rule="evenodd" clip-rule="evenodd" d="M24.9686 13.7975C24.9585 13.8339 24.9485 13.8706 24.9385 13.9074C25.1595 13.0947 25.3786 12.3937 25.5906 11.7895C25.3882 12.3663 25.1794 13.0313 24.9686 13.7975Z" fill="#2CD246"/>
<path d="M24.5566 42.4999C24.1794 42.5013 23.7982 42.4814 23.413 42.4383L23.2399 42.4195C17.8281 41.8151 13.9168 36.9288 14.5225 31.5268L15.1959 25.5173C15.465 23.1259 16.6488 20.9834 18.5332 19.4823C20.4175 17.9812 22.7736 17.301 25.1703 17.5695L27.0358 17.7778C31.9827 18.3297 35.556 22.7943 35.001 27.7304L34.3276 33.7399C33.7651 38.7575 29.4994 42.4814 24.5566 42.4999ZM24.1196 18.4077C22.2957 18.4146 20.5401 19.0285 19.092 20.1825C17.3957 21.5354 16.3276 23.4661 16.0849 25.6187L15.4115 31.6283C14.8603 36.5391 18.4161 40.9825 23.3377 41.5325L23.5108 41.5512C28.4324 42.1012 32.8855 38.5532 33.4367 33.6423L34.1101 27.6329C34.6086 23.1879 31.3909 19.1662 26.9342 18.6688L25.0687 18.4604C24.7535 18.4228 24.4346 18.4066 24.1196 18.4077Z" fill="#000072"/>
<path d="M24.1196 18.4077C22.2957 18.4146 20.5401 19.0285 19.092 20.1825C17.3957 21.5354 16.3276 23.4661 16.0849 25.6187L15.4115 31.6283C14.8603 36.5391 18.4161 40.9825 23.3377 41.5325L23.5108 41.5512C28.4324 42.1012 32.8855 38.5532 33.4367 33.6423L34.1101 27.6329C34.6086 23.1879 31.3909 19.1662 26.9342 18.6688L25.0687 18.4604C24.7535 18.4228 24.4346 18.4066 24.1196 18.4077Z" fill="#FFD225"/>
<path fill-rule="evenodd" clip-rule="evenodd" d="M22.1611 28.2759C23.0519 27.7967 23.9752 27.2844 24.8992 26.7487C23.9726 25.9373 23.0516 25.0929 22.1791 24.2347C20.6171 25.0924 19.1575 25.806 18.0083 26.3284C18.5817 26.9782 19.2692 27.7088 20.0876 28.5119C20.0917 29.2207 20.4548 29.8006 20.9637 29.8563C21.1184 29.8732 21.2704 29.8398 21.4114 29.7658C22.4178 30.6868 23.58 31.6832 24.9199 32.7479C26.356 31.9936 27.819 31.1712 29.2119 30.2987C29.0378 30.1633 28.8609 30.0249 28.6817 29.8837C28.7966 29.6732 28.8768 29.4216 28.9066 29.1468C28.9094 29.1213 28.9117 29.0958 28.9135 29.0705C29.2552 29.3416 29.5888 29.603 29.9121 29.8536C31.2234 29.0047 32.4548 28.1154 33.5267 27.2052C32.503 26.4698 31.3035 25.5023 30.0685 24.4049C28.9535 25.1929 27.6771 26.0184 26.2414 26.8737C26.3064 26.9287 26.3708 26.9837 26.4356 27.039L26.4358 27.0392C26.4915 27.0868 26.5475 27.1346 26.6042 27.1827C26.8591 27.3977 27.1125 27.609 27.3637 27.8164C27.188 27.9811 27.043 28.2146 26.9515 28.4907C26.4827 28.1046 26.0067 27.7052 25.5294 27.2955C24.5612 27.8598 23.527 28.438 22.4267 29.0281C22.2388 29.1283 22.0523 29.2271 21.8676 29.3246C22.0124 29.0966 22.1141 28.8097 22.1486 28.4917C22.1565 28.4188 22.1606 28.3467 22.1611 28.2759ZM29.7616 36.3211C31.0946 35.5652 32.3128 34.7942 33.4279 34.0042C33.5578 33.9125 33.7211 33.91 33.8517 33.989L33.8085 34.383C33.7986 34.4705 33.7854 34.558 33.7722 34.6454C33.7679 34.6744 33.7635 34.7035 33.7592 34.7325C32.7528 35.4406 31.6626 36.1334 30.4829 36.8131C31.1203 37.2434 31.7832 37.6813 32.4732 38.1269C32.3321 38.3467 32.1812 38.5607 32.0206 38.765C31.2214 38.248 30.4553 37.7406 29.7242 37.2428C28.3019 38.032 26.757 38.8061 25.0779 39.5691C26.0504 40.2431 26.9529 40.8479 27.7327 41.3703L27.8637 41.4581C27.9339 41.5045 27.9827 41.5683 28.0102 41.64C27.719 41.742 27.4198 41.8265 27.1148 41.8975C26.2687 41.3303 25.294 40.6743 24.2452 39.9409C23.1017 40.4458 21.9 40.9451 20.636 41.4426C20.2914 41.3198 19.9545 41.1774 19.633 41.0157C19.664 40.9923 19.697 40.9708 19.7358 40.9552C21.0562 40.4457 22.3084 39.9327 23.4984 39.416C22.1765 38.4761 20.7628 37.424 19.3604 36.2845C17.951 36.901 16.7881 37.369 16.0405 37.6493C15.9074 37.4228 15.784 37.1904 15.6723 36.9522C16.3403 36.7033 17.3945 36.2841 18.6836 35.7263C17.4937 34.7315 16.325 33.6766 15.2397 32.5767C15.195 32.5865 15.1503 32.5925 15.1055 32.5869C15.018 32.5756 14.9362 32.5351 14.8737 32.4713C14.8775 32.4364 14.8803 32.402 14.883 32.3675C14.8858 32.333 14.8886 32.2986 14.8924 32.2636L14.9902 31.3999C15.1049 31.3897 15.2217 31.43 15.3076 31.519C15.3336 31.5473 15.3605 31.5747 15.387 31.6019C15.4004 31.6155 15.4136 31.6291 15.4267 31.6427C16.1837 31.2945 17.8628 30.5082 19.9354 29.4488C18.8465 28.4032 17.9679 27.4674 17.2668 26.661C16.6475 26.9292 16.168 27.1172 15.8786 27.2153C15.8223 27.2349 15.764 27.239 15.7095 27.2334C15.6181 27.2241 15.5343 27.1817 15.4718 27.1179L15.5396 26.5201C15.5667 26.5025 15.5958 26.4868 15.6269 26.4751C15.8638 26.3966 16.2444 26.2458 16.7356 26.0363C16.3683 25.5914 16.0615 25.1929 15.8094 24.8485C15.7781 24.8079 15.7585 24.7614 15.7467 24.7148L15.7496 24.6952C15.7638 24.6005 15.7782 24.5045 15.7961 24.4101C15.8212 24.3692 15.8541 24.3322 15.8948 24.303C16.0694 24.1762 16.3145 24.2141 16.4416 24.3882C16.7171 24.7655 17.061 25.2066 17.479 25.7076C18.5894 25.2067 20.0373 24.5028 21.6014 23.6529C20.8303 22.8719 20.1098 22.083 19.4672 21.3054C18.6774 21.743 17.7051 22.2395 16.3465 22.8965C16.3018 22.918 16.2571 22.9298 16.2105 22.9339C16.3607 22.5511 16.5382 22.1837 16.743 21.8337C17.6533 21.386 18.3655 21.0186 18.969 20.6864C18.7638 20.4195 18.5664 20.1544 18.3827 19.8912C18.3797 19.8863 18.3772 19.8818 18.3746 19.8773C18.3723 19.8731 18.3699 19.8688 18.367 19.8641C18.5608 19.6946 18.7624 19.5347 18.9719 19.3845C18.9895 19.4039 19.007 19.4232 19.0226 19.4445C19.2162 19.7212 19.4293 20.0076 19.6559 20.2978C20.6486 19.7157 21.3805 19.196 22.4378 18.4452L22.4586 18.4304C22.6874 18.2666 22.9337 18.093 23.1994 17.9057C23.4619 17.8911 23.7244 17.8921 23.9908 17.9047C24.0731 18.0751 24.0233 18.2829 23.8643 18.3941C23.5153 18.6398 23.2011 18.8622 22.9121 19.067C21.8571 19.8161 21.1202 20.3388 20.1521 20.9129C20.7713 21.6556 21.4918 22.4387 22.3096 23.2621C23.6446 22.514 25.0356 21.6706 26.3486 20.7654C25.632 19.99 24.9582 19.2029 24.3603 18.4291C24.2431 18.2801 24.254 18.0725 24.374 17.9343C24.3934 17.9361 24.4129 17.9375 24.4323 17.9389C24.4518 17.9403 24.4712 17.9417 24.4907 17.9435L25.0218 18.0036C25.6158 18.7678 26.2837 19.5452 26.9925 20.3109C27.7526 19.7629 28.4758 19.1955 29.1386 18.6148C29.4034 18.6992 29.6604 18.7952 29.9097 18.903C29.8905 18.971 29.8538 19.0332 29.7976 19.0819C29.098 19.7015 28.3341 20.3059 27.5352 20.8871C28.3727 21.7609 29.2489 22.6113 30.1192 23.4016C31.1585 22.6429 32.0929 21.8769 32.8582 21.127C33.0261 21.3301 33.1845 21.541 33.3311 21.7597C32.6162 22.4512 31.7459 23.1782 30.7162 23.9387C31.9434 25.0226 33.1292 25.9688 34.1294 26.6772C34.1789 26.6325 34.2275 26.5871 34.2758 26.5419C34.3014 26.518 34.3268 26.4942 34.3523 26.4707C34.4414 26.385 34.5599 26.3535 34.6727 26.3685C34.6658 26.5956 34.653 26.8246 34.6267 27.0537L34.5627 27.6282C34.4852 27.6789 34.3958 27.7025 34.3043 27.6932C34.2674 27.6895 34.2304 27.6779 34.1953 27.6625C33.1216 28.5902 31.8845 29.497 30.5655 30.3615C32.0924 31.5276 33.3247 32.4058 33.968 32.8555L33.9739 32.8613L33.8986 33.5329C33.8365 33.5603 33.7666 33.5702 33.6985 33.5627C33.6362 33.5552 33.5739 33.5322 33.5174 33.4936C32.9305 33.0806 31.5716 32.1156 29.8672 30.8084C28.4821 31.6848 27.0249 32.5149 25.5889 33.277C26.8331 34.2405 28.2176 35.2578 29.7616 36.3211ZM29.4695 23.8619C28.5993 23.0658 27.725 22.2154 26.8913 21.3416C25.59 22.2486 24.2185 23.0901 22.8932 23.8362C23.7129 24.6344 24.6202 25.4653 25.6132 26.3308C26.9461 25.54 28.2632 24.7066 29.4695 23.8619ZM20.5346 30.0208C18.5531 31.0392 16.8916 31.8254 16.0026 32.2362C17.1015 33.3341 18.2838 34.3832 19.4834 35.374C20.8811 34.7537 22.4902 33.9987 24.1611 33.1427C22.7647 32.0245 21.5649 30.9793 20.5346 30.0208ZM20.1602 35.9245C21.58 37.0639 23.0074 38.1121 24.3293 39.0442C26.0162 38.2889 27.5708 37.5245 29.0009 36.745C27.4569 35.6719 26.0705 34.6469 24.8301 33.6737C23.1766 34.5297 21.5734 35.2905 20.1602 35.9245Z" fill="#F0C423"/>
<path fill-rule="evenodd" clip-rule="evenodd" d="M24.1196 18.4077C22.2957 18.4146 20.5401 19.0285 19.092 20.1825C18.5424 20.6208 18.0588 21.1197 17.6479 21.6672C18.1883 21.1536 19.4499 20.113 21.3948 19.4363L21.3949 19.4537C21.4386 19.7058 21.9349 19.83 22.5042 19.7309C23.0736 19.6337 23.4984 19.3507 23.4546 19.0986C23.4447 19.0405 23.4095 18.9883 23.3549 18.9458C25.1418 18.6639 27.3168 18.7433 29.8633 19.5762C28.9787 19.103 27.9913 18.7868 26.9342 18.6688L25.0687 18.4604C24.7535 18.4228 24.4346 18.4066 24.1196 18.4077Z" fill="#F5D972"/>
<path d="M24.5566 42.4999C24.1794 42.5013 23.7982 42.4814 23.413 42.4383L23.2399 42.4195C17.8281 41.8151 13.9168 36.9288 14.5225 31.5268L15.1959 25.5173C15.465 23.1259 16.6488 20.9834 18.5332 19.4823C20.4175 17.9812 22.7736 17.301 25.1703 17.5695L27.0358 17.7778C31.9827 18.3297 35.556 22.7943 35.001 27.7304L34.3276 33.7399C33.7651 38.7575 29.4994 42.4814 24.5566 42.4999ZM24.1196 18.4077C22.2957 18.4146 20.5401 19.0285 19.092 20.1825C17.3957 21.5354 16.3276 23.4661 16.0849 25.6187L15.4115 31.6283C14.8603 36.5391 18.4161 40.9825 23.3377 41.5325L23.5108 41.5512C28.4324 42.1012 32.8855 38.5532 33.4367 33.6423L34.1101 27.6329C34.6086 23.1879 31.3909 19.1662 26.9342 18.6688L25.0687 18.4604C24.7535 18.4228 24.4346 18.4066 24.1196 18.4077Z" fill="#000072"/>
<path d="M28.0431 27.559C28.6092 27.621 28.9949 28.3315 28.9066 29.1468C28.8183 29.962 28.2859 30.5733 27.7217 30.5114C27.1557 30.4494 26.7699 29.7388 26.8582 28.9236C26.9465 28.1084 27.477 27.4971 28.0431 27.559Z" fill="#000072"/>
<path d="M28.0301 28.7532C28.0621 28.4523 27.9288 28.1927 27.7304 28.1702C27.532 28.1496 27.3461 28.3754 27.3122 28.6744C27.2803 28.9753 27.4135 29.2348 27.612 29.2574C27.8104 29.2799 27.9963 29.0541 28.0301 28.7532Z" fill="white"/>
<path d="M22.1486 28.4917C22.2369 27.6765 21.8512 26.9658 21.2851 26.904C20.719 26.8421 20.1885 27.4533 20.1002 28.2685C20.0119 29.0837 20.3976 29.7944 20.9637 29.8563C21.5298 29.9181 22.0603 29.3069 22.1486 28.4917Z" fill="#000072"/>
<path d="M21.2704 28.0987C21.3023 27.7978 21.1691 27.5383 20.9706 27.5157C20.7721 27.4951 20.5863 27.7209 20.5524 28.0199C20.5205 28.3208 20.6537 28.5803 20.8522 28.6028C21.0506 28.6254 21.2365 28.3996 21.2704 28.0987Z" fill="white"/>
<path d="M24.3763 31.5833C24.3491 31.5834 24.3219 31.5816 24.2966 31.5797C23.8609 31.5464 23.4844 31.2277 23.2354 30.6834C23.0276 30.2244 22.9321 29.6504 22.9747 29.107C22.9877 28.942 23.1331 28.8192 23.2965 28.8322L25.7939 29.0246C25.8736 29.0301 25.9477 29.0686 25.9985 29.1286C26.0512 29.1886 26.0768 29.268 26.0693 29.3457C25.9839 30.4267 25.2494 31.58 24.3763 31.5833Z" fill="#000072"/>
<path d="M23.4198 30.3437C23.6739 30.1565 24.0158 30.0543 24.3796 30.0859C24.7842 30.1213 25.1312 30.314 25.348 30.5849C25.0716 31.0206 24.6954 31.3131 24.316 31.2835C23.9134 31.2539 23.5968 30.8631 23.4198 30.3437Z" fill="#F47DA2"/>
</svg>
