<svg width="54" height="87" viewBox="0 0 54 87" fill="none" xmlns="http://www.w3.org/2000/svg">
<path d="M13.1176 8.22989C16.8163 8.28224 22.4591 9.47171 25.7211 15.5838C27.9857 6.7908 30.2296 3.06174 31.5715 1.51454C32.1303 0.867295 33.1867 0.969366 33.6049 1.71898C36.0384 6.08438 36.2838 11.4036 35.8936 15.7267C40.2962 11.446 45.5728 11.5896 48.9603 12.3236C50.2472 12.6015 50.5187 14.2929 49.3811 14.9467C41.2285 19.6304 38.7864 27.0631 38.7864 27.0631L19.7024 24.8815C19.7024 24.8815 18.997 17.085 12.1149 10.6861C11.1527 9.80154 11.8007 8.21276 13.1176 8.22989Z" fill="#30E542"/>
<path d="M38.873 27.2006L38.7757 27.1877L19.5944 24.9932L19.5852 24.896C19.5761 24.8165 18.8046 17.0689 12.0334 10.7756C11.5545 10.3311 11.4062 9.67765 11.647 9.07579C11.8921 8.46508 12.4519 8.08737 13.1192 8.10253C17.0786 8.15831 22.4434 9.45047 25.6821 15.2534C27.8731 6.84062 30.0418 3.09417 31.4849 1.43169C31.7753 1.09477 32.2165 0.9252 32.663 0.972124C33.1139 1.01903 33.4948 1.26946 33.7128 1.65749C35.7148 5.25124 36.5011 9.87915 36.0448 15.4176C40.3688 11.3846 45.455 11.4362 48.9929 12.205C49.643 12.3439 50.1088 12.8371 50.2084 13.4862C50.3081 14.1266 50.0187 14.7286 49.4499 15.0533C41.4339 19.657 38.9342 27.028 38.908 27.1033L38.873 27.2006ZM19.8102 24.7802L38.7041 26.9405C39.0233 26.0644 41.7151 19.2184 49.321 14.8506C49.8016 14.5748 50.0471 14.0701 49.9612 13.5314C49.8751 12.9837 49.4803 12.5699 48.9319 12.4482C45.3896 11.6794 40.2681 11.6413 35.9712 15.82L35.7378 16.0462L35.7675 15.7235C36.2766 10.0965 35.5121 5.40667 33.4924 1.78647C33.3144 1.46457 32.9999 1.26249 32.6286 1.22412C32.2617 1.18573 31.8955 1.32851 31.6579 1.60337C30.2192 3.26583 28.0374 7.04768 25.8338 15.624L25.7554 15.9247L25.6085 15.6513C22.4445 9.72443 17.0663 8.41465 13.1113 8.35885C13.1025 8.35888 13.0936 8.35892 13.0848 8.35895C12.5325 8.36103 12.0697 8.67209 11.8639 9.18102C11.6626 9.68994 11.7839 10.2374 12.1919 10.6115C18.6216 16.5791 19.7006 23.8571 19.8102 24.7802Z" fill="#000072"/>
<g opacity="0.6">
<path opacity="0.6" d="M32.6282 2.49788C32.6282 2.49788 28.7622 11.9951 27.0939 14.8603C27.0894 14.8559 28.0889 3.34129 32.6282 2.49788Z" fill="white"/>
</g>
<g opacity="0.29">
<path opacity="0.29" d="M34.4924 22.534C34.0369 22.4341 33.5725 22.3431 33.1038 22.2565L37.2925 15.1353L37.0655 14.7031C36.669 15.0139 36.2726 15.3513 35.8896 15.7283C35.9617 14.9282 36.0115 14.0885 36.0304 13.2312C33.3892 14.7258 31.3304 19.5103 30.451 21.8467C30.4024 21.8424 30.3582 21.8338 30.3096 21.8295C30.1018 21.8082 29.8985 21.7869 29.6951 21.7656C28.9698 19.2408 27.0972 14.8114 26.3795 13.135C26.157 13.9047 25.9347 14.7141 25.7126 15.5811C25.4856 15.1533 25.2455 14.7565 24.9966 14.3774L24.8079 14.7096L26.8311 21.5819C26.5615 21.5741 26.2919 21.5663 26.0268 21.5629C22.9009 12.8697 12.4482 12.2684 12.4482 12.2684L20.7255 21.8877C20.1867 21.9605 19.6479 22.042 19.1224 22.1368C19.5927 23.8097 19.6895 24.8787 19.6895 24.8787L38.7735 27.0604C38.7735 27.0604 39.1493 25.9278 40.0842 24.2716L40.2965 24.3062C41.1829 22.6591 43.3592 19.7433 44.6959 17.9973C38.3273 17.6899 35.4676 21.0015 34.4924 22.534Z" fill="#000072"/>
</g>
<path d="M38.7924 28.0864C38.7526 28.0865 38.7128 28.0822 38.673 28.078L19.589 25.8963C19.1116 25.8407 18.7345 25.4577 18.6929 24.9762C18.6883 24.9055 17.9179 17.4716 11.4261 11.4335C10.6811 10.7382 10.4429 9.68299 10.8194 8.74479C11.2003 7.79774 12.1039 7.20222 13.1379 7.20716C16.2444 7.24848 21.6563 8.12068 25.347 13.0823C27.4054 5.84987 29.4252 2.44423 30.8066 0.848267C31.2862 0.294115 32.0186 0.00855066 32.7524 0.0809047C33.4862 0.157677 34.1374 0.583844 34.4933 1.22322C36.3307 4.52153 37.1857 8.62335 37.0492 13.4447C41.258 10.4904 45.8628 10.61 49.1752 11.3311C50.179 11.5482 50.9288 12.3408 51.0873 13.3521C51.2413 14.3545 50.7722 15.3284 49.8903 15.8355C42.2006 20.2523 39.7793 27.3182 39.753 27.389C39.6176 27.8049 39.2254 28.0847 38.7924 28.0864ZM20.6025 23.9659L38.126 25.9679C39.0106 23.8656 41.9625 18.0438 48.8806 14.0674C49.0922 13.9473 49.096 13.7617 49.0823 13.6601C49.0642 13.5541 49.0017 13.3732 48.7496 13.3167C45.424 12.5957 40.6162 12.552 36.6054 16.4556C36.3017 16.7528 35.8424 16.8296 35.4573 16.6455C35.0721 16.4614 34.8408 16.0601 34.8834 15.6358C35.2228 11.8918 35.1231 6.52337 32.7207 2.21529C32.6762 2.13592 32.601 2.11411 32.548 2.10989C32.4994 2.10565 32.4154 2.11039 32.3494 2.18576C31.2231 3.48912 28.9916 6.99277 26.7139 15.8433C26.6094 16.2502 26.2659 16.552 25.8507 16.6022C25.4311 16.6523 25.0282 16.4418 24.8324 16.0713C21.873 10.5281 16.8266 9.30543 13.1147 9.25313L13.1058 9.25317C12.854 9.25412 12.7529 9.41358 12.7135 9.51094C12.6741 9.60388 12.6394 9.78518 12.8168 9.95242C18.6524 15.3788 20.214 21.7182 20.6025 23.9659Z" fill="#000072"/>
<path d="M18.7165 27.7761C18.0943 25.653 16.1278 19.7525 12.7866 17.2641C12.2239 16.8464 12.4548 15.9618 13.1481 15.8576C16.3013 15.3906 22.4276 15.8977 26.2192 25.3572C26.3888 25.7852 26.1652 26.2677 25.7283 26.4063L19.7082 28.3026C19.289 28.4411 18.8418 28.1998 18.7165 27.7761Z" fill="#30E542"/>
<path d="M19.4747 28.4692C19.3288 28.4698 19.1785 28.435 19.0456 28.3604C18.8287 28.2419 18.6689 28.0481 18.6017 27.8141C17.9213 25.4836 15.9865 19.7995 12.7163 17.3683C12.4194 17.144 12.2899 16.7822 12.3814 16.4239C12.4728 16.0612 12.759 15.7994 13.13 15.745C16.4289 15.2554 22.5335 15.8466 26.334 25.3193C26.4276 25.5576 26.4198 25.8227 26.3102 26.0529C26.2006 26.2831 26.0068 26.4518 25.7641 26.5278L19.744 28.424C19.6558 28.4553 19.5674 28.4689 19.4747 28.4692ZM18.8312 27.747C18.8805 27.9235 19.0003 28.0645 19.1597 28.1523C19.3191 28.2356 19.5004 28.2526 19.6725 28.1989L25.6925 26.3027C25.8691 26.2446 26.0144 26.1203 26.0933 25.9521C26.1722 25.7839 26.1803 25.585 26.109 25.413C22.3709 16.0946 16.3946 15.5074 13.1662 15.9835C12.8394 16.0333 12.668 16.2726 12.6158 16.4805C12.5505 16.7458 12.6443 17.0106 12.8614 17.1733C16.1848 19.6485 18.1463 25.3899 18.8312 27.747Z" fill="#000072"/>
<g opacity="0.29">
<path opacity="0.29" d="M18.7154 27.5382C18.8407 27.9619 19.2879 28.2032 19.7072 28.0691L25.7272 26.1728C26.1642 26.0342 26.3921 25.5473 26.2182 25.1238C25.7543 23.9722 25.26 22.9533 24.7396 22.0539C22.0356 22.1436 19.4609 22.5112 17.0903 23.1078C17.8969 24.9077 18.4423 26.5936 18.7154 27.5382Z" fill="#000072"/>
</g>
<path d="M19.4776 29.369C19.1815 29.3701 18.8896 29.2961 18.624 29.1557C18.1901 28.9231 17.8793 28.5399 17.7405 28.0676C17.2302 26.3153 15.3168 20.4234 12.1795 18.0889C11.5946 17.6537 11.3311 16.9123 11.5096 16.2046C11.6881 15.4925 12.2738 14.9645 12.998 14.8557C14.6851 14.6063 17.2523 14.5966 19.9132 15.9874C22.9682 17.5799 25.4099 20.6064 27.163 24.9876C27.3504 25.4553 27.3347 25.9856 27.1199 26.4371C26.905 26.8886 26.5087 27.2348 26.032 27.3868L20.012 29.283C19.8398 29.3411 19.6588 29.3683 19.4776 29.369ZM13.8361 16.8056C17.0101 19.5024 18.8904 24.8199 19.6288 27.2739L25.1854 25.5209C21.8764 17.4868 16.8663 16.5247 13.8361 16.8056Z" fill="#000072"/>
<path d="M38.9675 31.8028C40.0251 29.8589 43.2042 24.5135 46.9978 22.7936C47.6374 22.504 47.6031 21.5894 46.9481 21.34C43.9657 20.2112 37.8736 19.4034 32.1522 27.8427C31.8929 28.2237 32.0098 28.7447 32.4083 28.973L37.8861 32.1073C38.267 32.3312 38.7569 32.188 38.9675 31.8028Z" fill="#30E542"/>
<path d="M38.2738 32.3345C38.1148 32.3351 37.96 32.2959 37.8227 32.2124L32.3448 29.0781C32.1234 28.9508 31.9724 28.7436 31.914 28.4964C31.8556 28.2492 31.9077 27.9839 32.0483 27.7757C37.7785 19.3275 43.8659 20.0469 46.9856 21.2282C47.3352 21.3594 47.5617 21.6767 47.5764 22.0523C47.5866 22.4234 47.3846 22.7512 47.0449 22.9027C43.3351 24.5825 40.2304 29.7244 39.0719 31.8586C38.9534 32.0756 38.7595 32.231 38.5212 32.2982C38.4373 32.3206 38.3578 32.3341 38.2738 32.3345ZM43.1704 20.7653C40.0552 20.7771 36.0751 22.2635 32.2477 27.9119C32.1422 28.0669 32.1076 28.2615 32.148 28.4425C32.1885 28.6235 32.3039 28.7778 32.4634 28.8699L37.9412 32.0043C38.0962 32.0921 38.2819 32.1179 38.454 32.0687C38.6306 32.0194 38.7715 31.904 38.8593 31.7446C40.031 29.5926 43.1665 24.3976 46.9469 22.6865C47.1939 22.5751 47.3433 22.336 47.3378 22.062C47.3326 21.8455 47.2122 21.572 46.9025 21.4583C45.9201 21.082 44.6419 20.7598 43.1704 20.7653Z" fill="#000072"/>
<g opacity="0.29">
<path opacity="0.29" d="M36.2367 23.2346C34.9593 24.2955 33.6655 25.7188 32.3867 27.6016C32.1275 27.9826 32.2443 28.5036 32.6429 28.7319L38.1207 31.8662C38.506 32.0857 38.9915 31.9469 39.2022 31.5572C39.856 30.3617 41.3137 27.8729 43.2234 25.7358C41.1118 24.7054 38.7578 23.8614 36.2367 23.2346Z" fill="#000072"/>
</g>
<path d="M38.2758 33.2302C37.9621 33.2314 37.6569 33.1486 37.3779 32.9906L31.9001 29.8562C31.4661 29.606 31.1508 29.1874 31.0385 28.6973C30.9261 28.2073 31.0214 27.6855 31.3026 27.2691C33.948 23.3662 36.9789 20.9244 40.3028 20.0193C43.1986 19.2307 45.7061 19.7824 47.3035 20.3862C47.9894 20.6443 48.447 21.2877 48.4718 22.0212C48.4967 22.7502 48.0794 23.419 47.4133 23.7175C43.8535 25.3305 40.7275 30.6846 39.8586 32.2831C39.626 32.7125 39.2339 33.0233 38.7616 33.1577C38.6027 33.2069 38.4393 33.2296 38.2758 33.2302ZM33.1267 28.2122L38.1838 31.1051C39.4215 28.8646 42.3949 24.0723 46.0684 22.1098C43.1662 21.1972 38.0665 21.0662 33.1267 28.2122Z" fill="#000072"/>
<path d="M23.6751 78.622L23.2817 78.5793C11.5184 77.2627 3.05186 66.6586 4.37295 54.8997L5.9033 41.2135C7.10024 30.5156 16.7439 22.8127 27.4462 24.0096L31.6856 24.4841C42.3835 25.6811 50.0864 35.3247 48.8895 46.027L47.3591 59.7133C46.0381 71.4722 35.434 79.9387 23.6751 78.622Z" fill="#FFD225"/>
<path d="M26.155 78.8797C25.3287 78.8828 24.4978 78.8373 23.6579 78.7433L23.2645 78.7006C11.457 77.3797 2.9239 66.6963 4.24922 54.8888L5.77956 41.2026C6.36089 35.9951 8.93712 31.328 13.0298 28.0604C17.1226 24.7928 22.2471 23.3108 27.4502 23.8966L31.6896 24.3711C42.4362 25.5767 50.2012 35.2997 49 46.0462L47.4697 59.7324C46.2428 70.6956 36.9367 78.8391 26.155 78.8797ZM25.1617 24.0113C20.8137 24.0277 16.6303 25.4972 13.1852 28.2498C9.14095 31.4775 6.59544 36.0914 6.0227 41.2326L4.49236 54.9189C3.18422 66.5937 11.6197 77.1581 23.299 78.4663L23.6924 78.509C35.3672 79.8127 45.9317 71.3817 47.2398 59.7024L48.7701 46.0161C49.9585 35.3978 42.2912 25.7982 31.6728 24.6054L27.4334 24.1309C26.6687 24.0454 25.9129 24.0084 25.1617 24.0113Z" fill="#000072"/>
<g opacity="0.29">
<path opacity="0.29" d="M46.3163 33.9804C46.5967 35.6982 46.6565 37.4832 46.4512 39.3001L44.9209 52.9863C43.6042 64.7496 33.0002 73.2161 21.2413 71.895L20.8478 71.8523C13.7439 71.0572 7.84233 66.8728 4.57276 61.0921C6.20659 70.1797 13.6356 77.5046 23.2814 78.5817L23.6749 78.6245C35.4381 79.9411 46.0378 71.4746 47.3545 59.7157L48.8848 46.0295C49.3721 41.6708 48.3842 37.4855 46.3163 33.9804Z" fill="#000072"/>
</g>
<g opacity="0.15">
<g opacity="0.8" filter="url(#filter0_d_1_5094)">
<path d="M46.3178 60.4314C43.7838 62.2305 41.0154 63.9864 37.9862 65.7079C34.4775 63.2863 31.3314 60.9695 28.504 58.7752C31.7673 57.0396 35.0787 55.1491 38.2262 53.1533C42.0994 56.1302 45.1875 58.3279 46.5211 59.2685C46.6496 59.3564 46.7912 59.4089 46.9327 59.426C47.0874 59.4431 47.2464 59.4204 47.3875 59.358L47.5585 57.8285C47.5541 57.8241 47.5496 57.8197 47.5452 57.8153C46.0832 56.7912 43.283 54.7912 39.8131 52.1354C42.8104 50.1666 45.6218 48.1013 48.0618 45.9887C48.1415 46.0238 48.2256 46.05 48.3095 46.0585C48.5173 46.0798 48.7204 46.026 48.8967 45.9105L49.042 44.602C49.1019 44.0803 49.1309 43.5588 49.1466 43.0417C48.8902 43.0074 48.6209 43.0791 48.4184 43.2743C48.251 43.4296 48.0837 43.5893 47.912 43.7446C45.6391 42.1314 42.9443 39.9764 40.1556 37.508C42.4955 35.7759 44.4733 34.1202 46.0979 32.5454C45.7646 32.0474 45.4048 31.5671 45.0231 31.1045C43.2841 32.8123 41.1608 34.5569 38.7989 36.2847C36.8213 34.4849 34.83 32.5481 32.9269 30.558C34.7424 29.2344 36.4782 27.858 38.0681 26.4468C38.1958 26.3359 38.2792 26.1942 38.3228 26.0394C37.7563 25.794 37.1722 25.5753 36.5705 25.3831C35.0643 26.7056 33.421 27.9977 31.6935 29.2458C30.0829 27.5021 28.565 25.7315 27.2152 23.9911L26.0083 23.8543C25.9199 23.8458 25.8315 23.8417 25.7431 23.8332C25.4704 24.148 25.4456 24.6209 25.712 24.9601C27.0708 26.7225 28.602 28.5151 30.2304 30.2809C27.2467 32.3425 24.0856 34.2633 21.052 35.9671C19.1934 34.0917 17.5562 32.3083 16.1491 30.6168C18.3491 29.3094 20.0237 28.1189 22.4211 26.413C23.0778 25.9466 23.7917 25.4401 24.585 24.8804C24.9463 24.6272 25.0594 24.1539 24.8724 23.7658C24.2669 23.7371 23.6704 23.735 23.074 23.7681C22.4702 24.1946 21.9105 24.59 21.3905 24.9631C18.9623 26.6912 17.2921 27.8817 15.0214 29.2159C14.5064 28.555 14.0222 27.9029 13.5824 27.2726C13.5469 27.2242 13.507 27.1801 13.467 27.1361C12.9911 27.4781 12.5329 27.8422 12.0925 28.2283C12.1058 28.2503 12.1147 28.268 12.1281 28.29C12.5457 28.8894 12.9942 29.4931 13.4605 30.1011C12.0891 30.8575 10.4706 31.6943 8.40204 32.714C7.93665 33.5111 7.53327 34.3478 7.19189 35.2196C7.29791 35.2103 7.39944 35.1834 7.50089 35.1344C10.5884 33.6381 12.7979 32.5074 14.5926 31.5108C16.053 33.2817 17.6903 35.0784 19.4425 36.8569C15.8882 38.7925 12.5979 40.3956 10.0746 41.5364C9.12473 40.3955 8.34324 39.3909 7.71696 38.5316C7.42824 38.135 6.87115 38.0488 6.47455 38.3375C6.382 38.4041 6.30721 38.4884 6.25012 38.5814C6.2068 38.8113 6.17232 39.0456 6.13784 39.2755C6.16475 39.3815 6.20934 39.4874 6.28038 39.5799C6.85336 40.3643 7.55053 41.2719 8.38508 42.2851C7.26893 42.7621 6.40414 43.1056 5.86573 43.2844C5.79513 43.3111 5.72898 43.3468 5.66727 43.3868L5.51333 44.7483C5.65528 44.8936 5.84564 44.9901 6.05341 45.0114C6.17718 45.0242 6.30971 45.0148 6.43768 44.9702C7.09524 44.7468 8.18506 44.3185 9.59234 43.7078C11.1856 45.5444 13.1821 47.6756 15.6567 50.0568C10.9466 52.4695 7.13108 54.2602 5.41075 55.0532C5.32203 54.9608 5.22889 54.8684 5.14015 54.7715C4.94496 54.5689 4.67949 54.4771 4.41887 54.5002L4.19651 56.4674C4.17943 56.6265 4.17118 56.7812 4.1541 56.9404C4.29605 57.0857 4.48198 57.1778 4.68092 57.2035C4.7826 57.2164 4.88419 57.2028 4.98573 57.1803C7.452 59.6853 10.1079 62.0879 12.8119 64.3534C9.88261 65.6238 7.48681 66.5784 5.96889 67.1453C6.22281 67.6878 6.50319 68.217 6.80561 68.7329C8.50442 68.0946 11.1472 67.0286 14.35 65.6246C17.5368 68.2197 20.7495 70.6158 23.7535 72.7564C21.0492 73.9331 18.2035 75.1016 15.2031 76.2618C15.1149 76.2975 15.0399 76.3463 14.9694 76.3996C15.6999 76.768 16.4656 77.0922 17.2488 77.372C20.1211 76.2388 22.852 75.1017 25.4504 73.9519C27.8339 75.6221 30.0489 77.1161 31.9716 78.408C32.6647 78.2463 33.3445 78.0537 34.0064 77.8214C33.9439 77.6582 33.8329 77.5128 33.6734 77.4073C31.835 76.1726 29.6776 74.7269 27.3428 73.1052C31.1585 71.3675 34.6692 69.6045 37.9014 67.8071C39.5627 68.9409 41.3036 70.0965 43.1197 71.2738C43.4847 70.8085 43.8276 70.3211 44.1482 69.8206C42.5802 68.8058 41.074 67.8084 39.6254 66.8285C42.3062 65.2806 44.7836 63.7027 47.0708 62.09C47.1096 61.8247 47.1528 61.5595 47.1827 61.2942L47.281 60.3968C46.9842 60.2168 46.6131 60.2226 46.3178 60.4314ZM26.9838 57.5702C23.7971 55.0326 21.053 52.6656 18.694 50.4872C19.5496 50.0377 20.4272 49.5748 21.3179 49.0987C23.8183 47.7548 26.1686 46.438 28.3687 45.1527C31.2635 47.6428 34.1356 49.9651 36.7371 51.9923C33.5719 53.9794 30.2472 55.8523 26.9838 57.5702ZM38.6838 38.5696C41.4903 41.0689 44.2161 43.2724 46.5423 44.9472C44.1065 47.02 41.3082 49.0455 38.3284 50.9788C36.0018 49.1715 33.44 47.1176 30.8113 44.896C30.532 44.6585 30.2616 44.4253 29.9867 44.1921C33.2493 42.2444 36.1498 40.3643 38.6838 38.5696ZM31.4637 31.5931C33.3581 33.5832 35.345 35.52 37.3226 37.3331C34.5813 39.2567 31.5882 41.1548 28.5593 42.9558C26.3027 40.9847 24.2408 39.0924 22.3781 37.2745C25.3897 35.5752 28.5065 33.6589 31.4637 31.5931ZM11.2774 42.9502C13.8889 41.7606 17.2057 40.1353 20.7554 38.182C22.738 40.1365 24.8309 42.0596 26.9367 43.9076C23.6299 45.8289 20.327 47.6177 17.3105 49.1889C14.8625 46.8562 12.875 44.7648 11.2774 42.9502ZM6.71938 56.4049C8.73964 55.4693 12.5154 53.6788 17.0182 51.3596C19.3595 53.5425 22.086 55.9228 25.2594 58.4693C21.4622 60.419 17.8056 62.1384 14.6294 63.5511C11.9033 61.2946 9.21656 58.9053 6.71938 56.4049ZM25.6415 71.9097C22.6376 69.7868 19.394 67.3996 16.1674 64.8047C19.3788 63.3609 23.0222 61.6283 26.7796 59.6787C29.5983 61.8951 32.7489 64.2296 36.2577 66.6733C33.0078 68.4486 29.4749 70.1896 25.6415 71.9097Z" fill="#835F13"/>
</g>
</g>
<g opacity="0.6">
<path opacity="0.6" d="M48.5833 50.5014C48.2291 53.835 47.681 56.1617 47.681 56.1617C47.681 56.1617 48.6197 54.2887 48.5833 50.5014Z" fill="white"/>
<path opacity="0.6" d="M47.3248 57.1245L47.5597 56.1339C47.564 56.1117 48.1075 53.7722 48.4619 50.4877L48.7006 50.5001C48.7369 54.2736 47.8248 56.1373 47.7853 56.217L47.3248 57.1245Z" fill="#000072"/>
</g>
<g opacity="0.6">
<path opacity="0.6" d="M40.3596 28.3398C40.3596 28.3398 29.9381 20.7567 20.0865 24.8724C10.2349 28.988 9.77294 33.0373 9.77294 33.0373C9.77294 33.0373 12.9141 29.3668 18.9731 27.2539C18.9732 27.2671 18.9732 27.2804 18.9733 27.2936C19.0726 27.8677 20.2005 28.1507 21.4943 27.9249C22.7882 27.7035 23.7535 27.0591 23.6541 26.485C23.6315 26.3526 23.5515 26.2336 23.4274 26.1368C27.9805 25.4171 33.6421 25.7316 40.3596 28.3398Z" fill="white"/>
</g>
<path d="M26.1583 79.7799C25.3011 79.7831 24.4348 79.7378 23.5595 79.6395L23.1661 79.5968C10.8679 78.2203 1.97961 67.092 3.3561 54.7894L4.88644 41.1031C5.49781 35.6569 8.18812 30.7773 12.4703 27.3587C16.7524 23.9401 22.1065 22.391 27.5528 23.0024L31.7921 23.4769C43.0338 24.7337 51.154 34.9016 49.8928 46.1432L48.3625 59.8295C47.0843 71.2568 37.3906 79.7376 26.1583 79.7799ZM25.165 24.9115C21.0202 24.9271 17.031 26.3252 13.7401 28.9535C9.88525 32.0346 7.45823 36.4316 6.90669 41.3341L5.37635 55.0204C4.1238 66.2045 12.2041 76.324 23.3883 77.5766L23.7817 77.6193C34.9659 78.8718 45.0853 70.7915 46.3379 59.6073L47.8682 45.9211C49.001 35.7979 41.6888 26.6388 31.5612 25.506L27.3218 25.0315C26.6056 24.9458 25.8808 24.9088 25.165 24.9115Z" fill="#000072"/>
<path d="M31.9446 25.0872C31.8916 25.0874 31.8341 25.0832 31.7811 25.0746C31.224 24.9883 30.8464 24.4639 30.9371 23.9112C32.2276 15.767 38.3757 12.6595 38.6359 12.5348C39.1431 12.2855 39.7493 12.4953 39.9986 12.9981C40.248 13.5009 40.0382 14.1115 39.5354 14.3608C39.3061 14.4766 34.0667 17.1696 32.9444 24.2306C32.8668 24.7258 32.4351 25.0854 31.9446 25.0872Z" fill="#000072"/>
<path d="M27.7053 24.4333C27.6832 24.4334 27.6611 24.4335 27.6346 24.4291C27.0733 24.3915 26.6473 23.9114 26.6849 23.3501C27.0813 17.1447 22.5413 13.1186 22.497 13.079C22.0714 12.7095 22.0292 12.0689 22.3988 11.6433C22.7684 11.2177 23.4089 11.1755 23.8345 11.5451C24.0518 11.7343 29.177 16.284 28.7181 23.4839C28.6847 24.0187 28.2356 24.4313 27.7053 24.4333Z" fill="#000072"/>
<path d="M30.7918 17.4431C30.9263 17.9729 31.0078 18.494 31.0761 19.0107C31.1399 19.5319 31.186 20.0487 31.2145 20.5612C31.2385 21.0781 31.2625 21.5906 31.2247 22.0989C31.1913 22.6072 31.1269 23.1111 30.9652 23.6066C30.7861 24.1508 30.1951 24.4491 29.651 24.27C29.2439 24.1345 28.9774 23.7776 28.9406 23.3757C28.8944 22.8588 28.9456 22.3505 29.0276 21.8509C29.1097 21.3468 29.2448 20.8514 29.3843 20.356C29.5239 19.8606 29.6899 19.365 29.8692 18.8739C30.053 18.3827 30.25 17.8915 30.5 17.4089C30.5395 17.3336 30.6322 17.3023 30.7119 17.3418C30.7561 17.3682 30.7828 17.4034 30.7918 17.4431Z" fill="#000072"/>
<path d="M20.686 47.8771C20.8867 46.0204 20.0101 44.402 18.7237 44.2611C17.4373 44.1201 16.2318 45.5121 16.0311 47.3688C15.8304 49.2254 16.707 50.8438 17.9934 50.9848C19.2798 51.1257 20.4853 49.7337 20.686 47.8771Z" fill="#000072"/>
<path d="M18.6903 46.982C18.7628 46.2967 18.4601 45.7057 18.0091 45.6543C17.5581 45.6074 17.1358 46.1217 17.0588 46.8026C16.9862 47.4878 17.289 48.0789 17.74 48.1302C18.191 48.1816 18.6133 47.6673 18.6903 46.982Z" fill="white"/>
<path d="M17.7962 48.2528C17.7697 48.2529 17.7476 48.253 17.7211 48.2487C17.1994 48.1932 16.8522 47.5493 16.9333 46.7888C16.9718 46.4351 17.0987 46.112 17.2923 45.8771C17.4991 45.6288 17.7549 45.5041 18.0114 45.5341C18.5331 45.5896 18.8802 46.2335 18.7991 46.9939C18.7607 47.3476 18.6337 47.6707 18.4402 47.9057C18.2554 48.1318 18.0305 48.2519 17.7962 48.2528ZM17.9416 45.7686C17.7825 45.7692 17.6193 45.8582 17.4785 46.0266C17.3157 46.2261 17.2063 46.505 17.1721 46.8145C17.1081 47.4202 17.3665 47.9672 17.7467 48.0099C17.9191 48.027 18.1044 47.9379 18.254 47.7517C18.4167 47.5522 18.5262 47.2734 18.5604 46.9639C18.6244 46.3582 18.366 45.8112 17.9857 45.7684C17.9769 45.7684 17.9592 45.7685 17.9416 45.7686Z" fill="#000072"/>
<path d="M23.2354 49.3322C23.0584 51.6045 24.0445 54.1155 25.6138 54.2333C27.1832 54.3556 28.7345 52.0427 28.9116 49.7705L23.2354 49.3322Z" fill="#000072"/>
<path d="M23.575 52.0949C24.1523 51.6685 24.9293 51.4358 25.756 51.5078C26.6755 51.5883 27.4639 52.0273 27.9567 52.6441C27.3285 53.6364 26.4736 54.3026 25.6116 54.2351C24.6965 54.1679 23.9772 53.2778 23.575 52.0949Z" fill="#F47DA2"/>
<path d="M25.7368 54.3764C25.6926 54.3766 25.6439 54.3768 25.5997 54.3725C24.6891 54.3008 23.9038 53.4862 23.4435 52.14L23.4122 52.0473L23.4915 51.9896C24.1218 51.5232 24.9297 51.3036 25.7652 51.38C26.6892 51.4604 27.5217 51.8948 28.059 52.5646L28.1167 52.6395L28.0684 52.7192C27.3962 53.778 26.5543 54.3734 25.7368 54.3764ZM23.7308 52.1433C24.1551 53.3306 24.8428 54.0439 25.6208 54.1073C26.3458 54.162 27.1526 53.6242 27.7897 52.6584C27.3014 52.0857 26.5576 51.7173 25.7441 51.6452C25.0103 51.5773 24.2994 51.7567 23.7308 52.1433Z" fill="#000072"/>
<path d="M25.7485 54.9179C25.6867 54.9182 25.6248 54.914 25.5673 54.9098C24.5772 54.834 23.7217 54.1081 23.1558 52.8686C22.6835 51.8231 22.4665 50.516 22.5634 49.2784C22.5929 48.9026 22.9233 48.623 23.2946 48.6526L28.9699 49.0907C29.1511 49.1033 29.3194 49.191 29.4348 49.3276C29.5546 49.4641 29.6127 49.6451 29.5957 49.8219C29.4017 52.2838 27.7325 54.9104 25.7485 54.9179ZM23.9053 50.0642C23.9304 50.8595 24.1057 51.6631 24.3954 52.3027C24.7384 53.057 25.2041 53.5148 25.6682 53.5484C26.6362 53.6287 27.7793 52.0911 28.1353 50.3885L23.9053 50.0642Z" fill="#000072"/>
<path d="M36.0434 49.369C36.2441 47.5123 35.3675 45.894 34.0811 45.753C32.7947 45.612 31.5892 47.0041 31.3885 48.8607C31.1878 50.7173 32.0644 52.3357 33.3508 52.4767C34.6328 52.6177 35.8427 51.2256 36.0434 49.369Z" fill="#000072"/>
<path d="M34.0516 48.4726C34.1242 47.7873 33.8214 47.1962 33.3704 47.1449C32.9195 47.098 32.4971 47.6122 32.4201 48.2931C32.3476 48.9784 32.6503 49.5695 33.1013 49.6208C33.5523 49.6722 33.9746 49.1579 34.0516 48.4726Z" fill="white"/>
<path d="M33.1595 49.7453C33.133 49.7454 33.1065 49.7455 33.0844 49.7412C32.5627 49.6857 32.2155 49.0418 32.2966 48.2813C32.3351 47.9276 32.462 47.6045 32.6556 47.3696C32.8624 47.1213 33.1138 46.9966 33.3747 47.0265C33.8964 47.082 34.2435 47.726 34.1624 48.4864C34.0856 49.2115 33.6545 49.7435 33.1595 49.7453ZM33.3048 47.261C33.1457 47.2616 32.9825 47.3506 32.8462 47.5191C32.6834 47.7186 32.574 47.9974 32.5398 48.3069C32.4758 48.9126 32.7342 49.4597 33.1144 49.5024C33.4902 49.5452 33.8641 49.0665 33.9281 48.4608C33.9921 47.8551 33.7337 47.308 33.3579 47.2653C33.3358 47.2654 33.3225 47.261 33.3048 47.261Z" fill="#000072"/>
<defs>
<filter id="filter0_d_1_5094" x="0.154297" y="23.7438" width="52.9922" height="62.6642" filterUnits="userSpaceOnUse" color-interpolation-filters="sRGB">
<feFlood flood-opacity="0" result="BackgroundImageFix"/>
<feColorMatrix in="SourceAlpha" type="matrix" values="0 0 0 0 0 0 0 0 0 0 0 0 0 0 0 0 0 0 127 0" result="hardAlpha"/>
<feOffset dy="4"/>
<feGaussianBlur stdDeviation="2"/>
<feComposite in2="hardAlpha" operator="out"/>
<feColorMatrix type="matrix" values="0 0 0 0 0 0 0 0 0 0 0 0 0 0 0 0 0 0 0.25 0"/>
<feBlend mode="normal" in2="BackgroundImageFix" result="effect1_dropShadow_1_5094"/>
<feBlend mode="normal" in="SourceGraphic" in2="effect1_dropShadow_1_5094" result="shape"/>
</filter>
</defs>
</svg>
